#!OML:ASF H:\Terrain\Patient Classification 1\Animal1\Tuesday\Animal1.ASF
:FULLY-SPECIFIED
:DEGREES
969
root 9.34446 16.0002 -2.56878 7.89921 -43.9639 -359.823
lowerback 10.5944 -5.23238 -2.71161
upperback -4.04883 -7.18505 2.7737
thorax -9.58083 -3.21288 5.80819
lowerneck 3.95082 -0.674303 -7.68562
upperneck 16.0592 -2.09456 6.69404
head 4.28041 -1.29456 3.29108
rclavicle -6.06542e-014 -1.63003e-014
rhumerus -58.9707 -15.9849 -25.8741
rradius 13.9522
rwrist 5.17015
rhand -28.8408 20.0921
rfingers 7.12502
rthumb -2.19795 -9.87634
lclavicle -6.06542e-014 -1.63003e-014
lhumerus -51.466 18.1973 20.8352
lradius 21.1827
lwrist -52.1494
lhand -21.1203 73.4955
lfingers 7.12502
lthumb -174.742 76.5898
rfemur -44.263 17.1724 -0.687565
rtibia 30.3622
rfoot -15.8738 -27.3909
rtoes 16.8219
lfemur -24.3806 20.3342 -26.6169
ltibia 43.5347
lfoot -30.9012 31.0326
ltoes 31.5549
970
root 9.2686 15.9931 -2.56407 7.97618 -43.6257 -359.424
lowerback 10.4865 -5.30092 -2.93648
upperback -4.21299 -7.30695 2.83274
thorax -9.65059 -3.2517 6.01599
lowerneck 3.42623 -0.69568 -7.99256
upperneck 16.2401 -2.09255 6.75192
head 4.42555 -1.29728 3.35938
rclavicle -5.79954e-014 4.77083e-015
rhumerus -59.8934 -17.1675 -28.6273
rradius 13.6102
rwrist 4.81486
rhand -29.3024 20.3512
rfingers 7.12502
rthumb -2.64377 -9.61217
lclavicle -5.79954e-014 4.77083e-015
lhumerus -53.7394 19.1539 22.4792
lradius 20.9054
lwrist -52.3301
lhand -21.0778 73.2765
lfingers 7.12502
lthumb -174.701 76.8098
rfemur -44.1874 17.2972 -1.16648
rtibia 29.7505
rfoot -16.1363 -26.837
rtoes 18.0932
lfemur -24.6362 20.283 -26.7596
ltibia 43.6691
lfoot -30.4997 31.1569
ltoes 30.7536
971
root 9.19229 15.9861 -2.56149 8.84019 -43.1614 -359.846
lowerback 10.1349 -5.44379 -2.49956
upperback -4.50919 -7.41984 3.03196
thorax -9.78684 -3.32063 5.99096
lowerneck 3.17367 -0.677189 -7.84207
upperneck 16.5054 -2.0176 6.41398
head 4.54115 -1.26594 3.23068
rclavicle 3.56322e-014 -3.97569e-016
rhumerus -60.8727 -18.4291 -30.8882
rradius 13.239
rwrist 4.9672
rhand -28.7719 19.9327
rfingers 7.12502
rthumb -2.13142 -10.0364
lclavicle 3.56322e-014 -3.97569e-016
lhumerus -56.2708 20.9156 22.8196
lradius 20.3134
lwrist -53.9537
lhand -21.1181 72.7143
lfingers 7.12502
lthumb -174.74 77.3709
rfemur -44.409 17.9197 -1.33627
rtibia 29.2481
rfoot -16.6278 -26.8777
rtoes 18.9997
lfemur -25.2684 20.1108 -26.3324
ltibia 43.8166
lfoot -29.4587 31.7676
ltoes 28.6629
972
root 9.11216 15.9777 -2.5556 9.38804 -42.8565 -360.167
lowerback 9.94296 -5.50571 -2.13996
upperback -4.73622 -7.44597 3.12732
thorax -9.95521 -3.3451 5.89777
lowerneck 3.15472 -0.724736 -7.75235
upperneck 16.6393 -2.06883 6.25685
head 4.58814 -1.29524 3.1654
rclavicle 2.70844e-014 -2.26615e-014
rhumerus -62.0573 -19.9386 -32.5268
rradius 12.8308
rwrist 5.49589
rhand -28.2437 19.4431
rfingers 7.12502
rthumb -1.62127 -10.5305
lclavicle 2.70844e-014 -2.26615e-014
lhumerus -58.898 23.0728 22.2123
lradius 19.652
lwrist -56.5141
lhand -20.9672 71.8276
lfingers 7.12502
lthumb -174.594 78.2614
rfemur -44.4526 18.6679 -1.456
rtibia 28.8498
rfoot -16.527 -27.2034
rtoes 18.0834
lfemur -25.485 19.978 -25.8735
ltibia 43.9402
lfoot -29.5324 31.6649
ltoes 28.6002
973
root 9.03029 15.9723 -2.54914 9.19488 -42.7419 -359.721
lowerback 9.98209 -5.45003 -2.41908
upperback -4.86641 -7.41609 3.10512
thorax -10.0944 -3.3049 6.03979
lowerneck 2.99892 -0.843974 -8.06275
upperneck 16.6369 -2.21424 6.28997
head 4.6282 -1.37843 3.22231
rclavicle -3.73964e-014 -1.47101e-014
rhumerus -63.262 -21.7477 -33.4453
rradius 12.3966
rwrist 6.51525
rhand -27.0534 19.3639
rfingers 7.12502
rthumb -0.471618 -10.6153
lclavicle -3.73964e-014 -1.47101e-014
lhumerus -61.7984 25.4618 21.0492
lradius 19.1082
lwrist -59.6438
lhand -20.8932 70.4233
lfingers 7.12502
lthumb -174.523 79.6675
rfemur -44.2937 19.0787 -1.87075
rtibia 28.5308
rfoot -16.405 -27.2082
rtoes 17.8268
lfemur -25.3339 20.079 -25.9505
ltibia 43.9942
lfoot -30.178 31.1142
ltoes 29.6119
